<svg width="15" height="18" viewBox="0 0 15 18" fill="none" xmlns="http://www.w3.org/2000/svg">
<path d="M13.2732 8.664C13.9991 7.73038 14.3953 6.58261 14.4 5.4C14.4 2.4228 11.9772 0 9 0H0V18H9.6C12.5772 18 15 15.5772 15 12.6C14.9984 11.8604 14.8442 11.1292 14.5471 10.4519C14.2499 9.77467 13.8163 9.16601 13.2732 8.664V8.664ZM9 3.6C9.9924 3.6 10.8 4.4076 10.8 5.4C10.8 6.3924 9.9924 7.2 9 7.2H3.6V3.6H9ZM9.6 14.4H3.6V10.8H9.6C10.5924 10.8 11.4 11.6076 11.4 12.6C11.4 13.5924 10.5924 14.4 9.6 14.4Z" fill="#8FB5FF"/>
</svg>
