<svg width="26" height="16" viewBox="0 0 26 16" fill="none" xmlns="http://www.w3.org/2000/svg">
<path d="M8.35487 2.78646C8.20501 2.56767 7.97438 2.41737 7.71371 2.36861C7.45304 2.31986 7.18368 2.37663 6.96487 2.52646L0.434867 6.97646C0.300807 7.0683 0.191145 7.19141 0.115372 7.33516C0.0395998 7.47891 0 7.63896 0 7.80146C0 7.96396 0.0395998 8.12401 0.115372 8.26776C0.191145 8.41151 0.300807 8.53463 0.434867 8.62646L6.96487 13.0765C7.07314 13.1526 7.19545 13.2064 7.3247 13.2349C7.45395 13.2634 7.58757 13.266 7.71781 13.2424C7.84805 13.2189 7.97233 13.1697 8.08343 13.0978C8.19453 13.0259 8.29025 12.9326 8.36503 12.8234C8.43982 12.7142 8.49218 12.5913 8.51909 12.4617C8.546 12.3321 8.54691 12.1984 8.52178 12.0685C8.49665 11.9386 8.44597 11.8149 8.37269 11.7047C8.29941 11.5945 8.20497 11.4999 8.09487 11.4265L2.77487 7.80646L8.09487 4.19646C8.206 4.12219 8.30112 4.0264 8.37459 3.91474C8.44807 3.80308 8.49842 3.67782 8.52266 3.54637C8.54689 3.41492 8.54454 3.27995 8.51572 3.14943C8.4869 3.0189 8.4322 2.89548 8.35487 2.78646V2.78646Z" fill="#8FB5FF"/>
<path d="M24.7481 6.81949L18.2181 2.36948C17.9966 2.21964 17.7247 2.1639 17.4622 2.21454C17.1996 2.26517 16.9679 2.41803 16.8181 2.63948C16.6682 2.86094 16.6125 3.13285 16.6631 3.3954C16.7138 3.65795 16.8666 3.88964 17.0881 4.03948L22.4081 7.66948L17.0881 11.2995C16.8729 11.4508 16.7259 11.6808 16.6791 11.9397C16.6323 12.1986 16.6895 12.4655 16.8381 12.6826C16.9868 12.8997 17.215 13.0494 17.4733 13.0994C17.7316 13.1493 17.9992 13.0955 18.2181 12.9495L24.7481 8.49948C24.8822 8.40765 24.9918 8.28453 25.0676 8.14078C25.1434 7.99703 25.183 7.83698 25.183 7.67448C25.183 7.51199 25.1434 7.35194 25.0676 7.20819C24.9918 7.06444 24.8822 6.94132 24.7481 6.84948V6.81949Z" fill="#8FB5FF"/>
<path d="M14.5849 0.0262433C14.47 -0.00213125 14.3506 -0.00756044 14.2336 0.0102664C14.1166 0.0280932 14.0042 0.0688264 13.903 0.130133C13.8017 0.191439 13.7135 0.272115 13.6435 0.36754C13.5735 0.462966 13.523 0.571267 13.4949 0.686243L10.0549 14.4862C10.0265 14.6012 10.0211 14.7205 10.0389 14.8375C10.0567 14.9546 10.0975 15.0669 10.1588 15.1682C10.2201 15.2694 10.3007 15.3576 10.3962 15.4276C10.4916 15.4976 10.5999 15.5481 10.7149 15.5762H10.9349C11.1348 15.5756 11.3289 15.5085 11.4864 15.3853C11.6439 15.2622 11.756 15.0901 11.8049 14.8962L15.2449 1.08624C15.2933 0.858499 15.2517 0.62083 15.1286 0.423167C15.0055 0.225505 14.8106 0.0832335 14.5849 0.0262433V0.0262433Z" fill="#8FB5FF"/>
</svg>
