<svg width="40" height="40" viewBox="0 0 40 40" fill="none" xmlns="http://www.w3.org/2000/svg">
    <path d="M20.0022 1.7189e-06C8.95096 -0.0045886 0 9.18522 0 20.5279C0 29.4974 5.59937 37.1219 13.3974 39.922C14.4475 40.1928 14.2867 39.4262 14.2867 38.9029V35.3454C8.22255 36.0753 7.97676 31.9532 7.5701 31.2646C6.74785 29.8233 4.80393 29.456 5.38487 28.7675C6.76572 28.0376 8.17339 28.9511 9.80449 31.4253C10.9842 33.2201 13.2857 32.9171 14.452 32.6188C14.7067 31.5401 15.2519 30.5761 16.0027 29.8279C9.71958 28.6711 7.10088 24.7326 7.10088 20.0505C7.10088 17.7783 7.82929 15.6897 9.2593 14.0051C8.34767 11.2279 9.34421 8.85013 9.47827 8.49667C12.0746 8.25798 14.7738 10.4062 14.9838 10.5761C16.4585 10.1675 18.1432 9.9518 20.029 9.9518C21.9238 9.9518 23.613 10.1767 25.1011 10.5899C25.6061 10.1951 28.1086 8.34978 30.5217 8.57471C30.6513 8.92816 31.6255 11.2509 30.7675 13.9913C32.2154 15.6805 32.9527 17.7875 32.9527 20.0643C32.9527 24.7556 30.3162 28.6986 24.0152 29.837C24.5549 30.3822 24.9834 31.0324 25.2757 31.7496C25.5681 32.4668 25.7184 33.2367 25.7178 34.0142V39.1783C25.7535 39.5915 25.7178 40 26.3881 40C34.3023 37.2596 40 29.58 40 20.5325C40 9.18522 31.0446 1.7189e-06 20.0022 1.7189e-06Z" fill="#DEDEDE"/>
</svg>
