<svg width="24" height="24" viewBox="0 0 24 24" fill="none" xmlns="http://www.w3.org/2000/svg">
<g clip-path="url(#clip0_1221_92)">
<path d="M7.12501 5.625C5.88235 5.625 4.87501 6.63234 4.87501 7.875C4.87501 9.11766 5.88235 10.125 7.12501 10.125C8.36767 10.125 9.37501 9.11766 9.37501 7.875C9.37501 6.63234 8.3672 5.625 7.12501 5.625ZM20.9578 1.5H2.95782C1.34298 1.5 -0.000457764 2.84297 -0.000457764 4.5V19.5C-0.000457764 21.157 1.34251 22.5 2.95735 22.5H20.9574C22.6144 22.5 23.9574 21.157 23.9574 19.5V4.5C23.9578 2.84297 22.6547 1.5 20.9578 1.5ZM21.7078 19.1859L15.2953 10.4719C15.1781 10.2562 14.9109 10.125 14.625 10.125C14.3385 10.125 14.0709 10.2547 13.912 10.4709L8.91517 17.2256L7.17657 15.0646C7.01528 14.8641 6.75779 14.7455 6.48423 14.7455C6.21039 14.7455 5.95314 14.864 5.79142 15.0646L2.25142 19.462V19.462L2.24954 4.5C2.24954 4.08647 2.58601 3.75 2.99954 3.75H20.9995C21.4131 3.75 21.7495 4.08647 21.7495 4.5V19.1859H21.7078Z" fill="#8FB5FF"/>
</g>
<defs>
<clipPath id="clip0_1221_92">
<rect width="24" height="24" fill="white"/>
</clipPath>
</defs>
</svg>
