<svg width="24" height="24" viewBox="0 0 24 24" fill="none" xmlns="http://www.w3.org/2000/svg">
<g clip-path="url(#clip0_1221_89)">
<path d="M12.0214 15.2614L7.16138 20.1214C6.79051 20.4919 6.14363 20.4537 5.72476 20.0344L3.96601 18.2753C3.54638 17.8564 3.50776 17.2095 3.87863 16.8387L8.73901 11.9787C9.11026 11.607 9.07051 10.9605 8.65201 10.5417C8.23313 10.1224 7.58701 10.0834 7.21538 10.455L1.00501 16.6643C0.634135 17.0352 0.672385 17.6817 1.09201 18.1009L5.89913 22.908C6.31688 23.3269 6.96488 23.3659 7.33538 22.995L13.5458 16.785C13.917 16.4138 13.8773 15.7669 13.4584 15.3484C13.0395 14.9299 12.3926 14.8898 12.0214 15.2614ZM22.9088 5.89879L18.1016 1.09167C17.6824 0.672418 17.0359 0.633793 16.6646 1.00467L10.455 7.21429C10.0838 7.58554 10.1228 8.23242 10.5416 8.65129C10.9601 9.06979 11.6078 9.10917 11.9786 8.73867L16.8379 3.87867C17.2099 3.50704 17.8564 3.54679 18.2753 3.96567L20.034 5.72479C20.4529 6.14404 20.4923 6.79017 20.1206 7.16179L15.261 12.0218C14.8898 12.3927 14.9295 13.0399 15.348 13.4592C15.7669 13.8777 16.4138 13.917 16.7854 13.5458L22.9946 7.33579C23.367 6.96492 23.3269 6.31729 22.9088 5.89879" fill="#8FB5FF"/>
<path d="M7.61324 16.3874C8.03174 16.8067 8.67824 16.8449 9.04874 16.474L16.4745 9.04867C16.8457 8.67742 16.8075 8.03204 16.3879 7.61242C15.9694 7.19317 15.3229 7.15379 14.9509 7.52579L7.52587 14.9508C7.15424 15.3217 7.19362 15.9685 7.61324 16.3874Z" fill="#8FB5FF"/>
</g>
<defs>
<clipPath id="clip0_1221_89">
<rect width="24" height="24" fill="white"/>
</clipPath>
</defs>
</svg>
