<svg width="17" height="16" viewBox="0 0 17 16" fill="none" xmlns="http://www.w3.org/2000/svg">
    <path d="M8.26917 0.554982C8.35457 0.349659 8.64543 0.349659 8.73083 0.554982L10.6896 5.26452C10.7256 5.35108 10.807 5.41022 10.9005 5.41771L15.9848 5.82532C16.2065 5.84309 16.2964 6.11972 16.1275 6.26439L12.2538 9.58265C12.1826 9.64364 12.1515 9.73933 12.1732 9.83052L13.3567 14.792C13.4083 15.0083 13.173 15.1792 12.9832 15.0633L8.63031 12.4046C8.55031 12.3557 8.44969 12.3557 8.36969 12.4046L4.01678 15.0633C3.82701 15.1792 3.59169 15.0083 3.64329 14.792L4.82678 9.83052C4.84853 9.73933 4.81744 9.64364 4.74624 9.58265L0.872508 6.26439C0.703624 6.11972 0.793506 5.84309 1.01517 5.82532L6.09951 5.41771C6.19296 5.41022 6.27436 5.35108 6.31036 5.26452L8.26917 0.554982Z" fill="black"/>
</svg>
