<svg width="18" height="21" viewBox="0 0 18 21" fill="none" xmlns="http://www.w3.org/2000/svg">
<path d="M17.775 18.5625H0.225C0.10125 18.5625 0 18.6581 0 18.7762V20.4863C0 20.6044 0.10125 20.7 0.225 20.7H9H17.775C17.8988 20.7 18 20.6044 18 20.4863V18.7762C18 18.6581 17.8988 18.5625 17.775 18.5625ZM9 16.425C10.9519 16.425 12.7856 15.6628 14.1694 14.2819C15.5531 12.9009 16.3125 11.0644 16.3125 9.1125V0.3375C16.3125 0.151875 16.1606 0 15.975 0H14.2875C14.1019 0 13.95 0.151875 13.95 0.3375V9.1125C13.95 11.8406 11.7281 14.0625 9 14.0625C6.27188 14.0625 4.05 11.8406 4.05 9.1125V0.3375C4.05 0.151875 3.89813 0 3.7125 0H2.025C1.83938 0 1.6875 0.151875 1.6875 0.3375V9.1125C1.6875 11.0644 2.44969 12.8981 3.83063 14.2819C5.21156 15.6656 7.04813 16.425 9 16.425Z" fill="#8FB5FF"/>
<path d="M0.225 18.5625H17.775C17.8988 18.5625 18 18.6581 18 18.7762V20.4863C18 20.6044 17.8988 20.7 17.775 20.7H9H0.225C0.10125 20.7 0 20.6044 0 20.4863V18.7762C0 18.6581 0.10125 18.5625 0.225 18.5625Z" fill="#8FB5FF"/>
</svg>
