<svg width="16" height="10" viewBox="0 0 16 10" fill="none" xmlns="http://www.w3.org/2000/svg">
    <path d="M1.29773 5.78125V5.785C1.27525 5.86439 1.23628 5.93886 1.18305 6.00414C1.12981 6.06941 1.06336 6.12423 0.987482 6.16544C0.911609 6.20665 0.827805 6.23346 0.740861 6.24432C0.653918 6.25518 0.56554 6.24989 0.480782 6.22875C-0.0945554 6.08625 0.00689618 5.465 0.00689618 5.465L0.0309244 5.3875C0.0309244 5.3875 0.0656314 5.2825 0.0936641 5.20625C0.436225 4.30686 0.940517 3.46895 1.58474 2.72875C2.78213 1.36125 4.79648 0 7.99354 0C11.1906 0 13.205 1.36125 14.4037 2.72875C15.0479 3.46895 15.5522 4.30686 15.8948 5.20625C15.9235 5.28355 15.9502 5.36149 15.9748 5.44L15.9789 5.45625V5.46125L15.9802 5.46375C16.0225 5.62283 15.9964 5.79112 15.9075 5.93235C15.8186 6.07358 15.6739 6.17643 15.5048 6.21873C15.3356 6.26104 15.1555 6.23941 15.0032 6.15851C14.8509 6.07761 14.7387 5.94392 14.6907 5.78625L14.6893 5.78125L14.6787 5.75C14.603 5.52874 14.5139 5.31172 14.4117 5.1C14.1396 4.53347 13.7896 4.00272 13.3705 3.52125C12.38 2.39 10.7221 1.25 7.99354 1.25C5.26503 1.25 3.60843 2.39 2.61661 3.52125C2.07264 4.14685 1.64608 4.85441 1.35513 5.61375C1.33864 5.65889 1.32307 5.70431 1.30841 5.75L1.29773 5.78125ZM4.65632 6.875C4.65632 6.0462 5.00792 5.25134 5.63377 4.66529C6.25962 4.07924 7.10846 3.75 7.99354 3.75C8.87863 3.75 9.72746 4.07924 10.3533 4.66529C10.9792 5.25134 11.3308 6.0462 11.3308 6.875C11.3308 7.7038 10.9792 8.49866 10.3533 9.08471C9.72746 9.67076 8.87863 10 7.99354 10C7.10846 10 6.25962 9.67076 5.63377 9.08471C5.00792 8.49866 4.65632 7.7038 4.65632 6.875Z" fill="black"/>
</svg>
