<svg width="20" height="13" viewBox="0 0 20 13" fill="none" xmlns="http://www.w3.org/2000/svg">
<path d="M1.62217 7.51563V7.5205C1.59407 7.62371 1.54535 7.72051 1.47881 7.80538C1.41226 7.89024 1.32919 7.96149 1.23435 8.01507C1.13951 8.06865 1.03476 8.10349 0.926077 8.11762C0.817398 8.13174 0.706926 8.12486 0.600978 8.09738C-0.118194 7.91212 0.00862023 7.1045 0.00862023 7.1045L0.0386555 7.00375C0.0386555 7.00375 0.0820393 6.86725 0.11708 6.76812C0.545281 5.59892 1.17565 4.50963 1.98092 3.54738C3.47766 1.76963 5.9956 0 9.99193 0C13.9883 0 16.5062 1.76963 18.0046 3.54738C18.8099 4.50963 19.4402 5.59892 19.8684 6.76812C19.9043 6.86862 19.9377 6.96994 19.9686 7.072L19.9736 7.09312V7.09963L19.9752 7.10288C20.0282 7.30968 19.9955 7.52846 19.8844 7.71206C19.7732 7.89565 19.5924 8.02935 19.381 8.08435C19.1695 8.13935 18.9444 8.11123 18.754 8.00606C18.5637 7.90089 18.4234 7.72709 18.3634 7.52212L18.3617 7.51563L18.3483 7.475C18.2537 7.18736 18.1423 6.90524 18.0146 6.63C17.6746 5.89351 17.237 5.20353 16.7131 4.57762C15.475 3.107 13.4026 1.625 9.99193 1.625C6.58129 1.625 4.51054 3.107 3.27076 4.57762C2.5908 5.3909 2.05761 6.31073 1.69392 7.29788C1.6733 7.35655 1.65383 7.4156 1.63552 7.475L1.62217 7.51563ZM5.8204 8.9375C5.8204 7.86006 6.2599 6.82675 7.04221 6.06488C7.82452 5.30301 8.88557 4.875 9.99193 4.875C11.0983 4.875 12.1593 5.30301 12.9416 6.06488C13.724 6.82675 14.1635 7.86006 14.1635 8.9375C14.1635 10.0149 13.724 11.0483 12.9416 11.8101C12.1593 12.572 11.0983 13 9.99193 13C8.88557 13 7.82452 12.572 7.04221 11.8101C6.2599 11.0483 5.8204 10.0149 5.8204 8.9375Z" fill="black"/>
</svg>
